<svg width="191" height="86" viewBox="0 0 191 86" fill="none" xmlns="http://www.w3.org/2000/svg" class="md:pt-0">
<g clip-path="url(#clip0_3303_2045)">
<path d="M55.3232 44.4566L58.9342 45.8319C59.0697 45.9064 59.212 45.9606 59.3746 45.9809C59.9708 46.0419 60.4992 45.6083 60.5602 45.0121C60.6212 44.4159 60.1876 43.8875 59.5914 43.8265C59.483 43.8129 59.3746 43.8265 59.2662 43.8468L55.3232 44.4566Z" fill="white"></path>
<path d="M60.655 48.9078C60.8583 48.2845 60.5196 47.6205 59.8963 47.4173C59.754 47.3699 59.6117 47.3563 59.4694 47.3631L54.7812 46.9905L58.7784 49.4633C58.8868 49.5514 59.0155 49.6259 59.1578 49.6733C59.7811 49.8766 60.445 49.5378 60.6483 48.9145" fill="white"></path>
<path d="M59.9846 53.0132C60.3302 52.3966 60.1134 51.6108 59.4968 51.2585C59.3884 51.1975 59.2733 51.1568 59.1581 51.1297L53.7314 49.3547L57.9115 53.2367C57.9996 53.3316 58.108 53.4196 58.2299 53.4942C58.8465 53.8465 59.6323 53.6229 59.9846 53.0064" fill="white"></path>
<path d="M58.5551 57.1865C59.07 56.6175 59.0293 55.7435 58.467 55.2218C58.3722 55.1338 58.2638 55.066 58.1554 55.0118L52.207 51.4482L56.3668 57.0104C56.4278 57.1052 56.5023 57.2001 56.5904 57.2746C57.1595 57.7895 58.0334 57.7489 58.5551 57.1865Z" fill="white"></path>
<path d="M56.2924 59.0565L50.2764 53.1895L53.9077 60.7434C53.9483 60.845 54.0025 60.9467 54.0703 61.0415C54.5581 61.7054 55.4862 61.8545 56.1569 61.3667C56.8209 60.8789 56.9699 59.9508 56.4821 59.28C56.4212 59.1987 56.3534 59.1242 56.2857 59.0565" fill="white"></path>
<path d="M53.447 62.9654C53.447 62.9654 53.4131 62.9112 53.3928 62.8841L48.3794 55.2556L50.6219 64.1171C50.6286 64.1578 50.6422 64.1984 50.649 64.2391V64.2729H50.6625C50.6828 64.3407 50.6964 64.4017 50.7303 64.4694C51.0826 65.2553 52.0039 65.6008 52.7898 65.2485C53.5757 64.8962 53.9212 63.9749 53.5689 63.189C53.5418 63.128 53.5012 63.067 53.4673 63.0128L53.447 62.979V62.9654Z" fill="white"></path>
<path d="M46.4213 67.0712V67.1118C46.4213 67.1796 46.428 67.2473 46.4416 67.3218C46.6245 68.1822 47.4714 68.731 48.3318 68.5481C49.1922 68.3652 49.7409 67.5183 49.558 66.6579C49.5445 66.5901 49.5174 66.5224 49.4903 66.4614L49.4699 66.414C49.4632 66.3869 49.4496 66.3598 49.4428 66.3395L45.9199 56.9834L46.4009 66.9763C46.4009 67.0102 46.4009 67.0508 46.4009 67.0847" fill="white"></path>
<path d="M42.9593 70.9259C43.8942 70.9259 44.653 70.1604 44.653 69.2254C44.653 69.1509 44.6394 69.0764 44.6327 69.0019V68.9477C44.6327 68.9477 44.6191 68.8867 44.6123 68.8596L42.9999 58.3247L41.2994 68.8528C41.2927 68.8867 41.2859 68.9274 41.2791 68.9612V69.0019C41.2723 69.0764 41.2588 69.1442 41.2588 69.2254C41.2588 70.1604 42.0243 70.9192 42.9593 70.9192" fill="white"></path>
<path d="M35.6156 69.3812C35.5547 69.5032 35.5072 69.6387 35.4801 69.7809C35.2769 70.7497 35.8934 71.7118 36.869 71.915C37.8378 72.1183 38.7998 71.5017 39.0031 70.5262C39.0302 70.3907 39.0437 70.2552 39.0437 70.1197L39.6263 59.0496L35.6224 69.3812H35.6156Z" fill="white"></path>
<path d="M32.831 70.5804C32.892 70.4449 32.9327 70.3027 32.9598 70.1604L35.9407 59.0293L29.5927 68.6428C29.5046 68.758 29.4233 68.8867 29.3623 69.0222C28.9355 69.9842 29.3623 71.1089 30.3176 71.5357C31.2796 71.9625 32.4042 71.5357 32.831 70.5804Z" fill="white"></path>
<path d="M23.0211 67.1931C22.364 68.0873 22.5605 69.3407 23.4547 69.9978C24.349 70.655 25.6024 70.4585 26.2528 69.5643C26.3476 69.4355 26.4221 69.3 26.4831 69.1645L32.1333 58.1147L23.3328 66.8611C23.2176 66.9559 23.116 67.0711 23.0211 67.1931Z" fill="white"></path>
<path d="M8.71936 65.2553L25.101 53.501L6.65981 61.6579C6.53108 61.7053 6.40914 61.7595 6.28719 61.834C5.28451 62.4302 4.95932 63.7242 5.54873 64.7201C6.14492 65.7228 7.43214 66.048 8.43482 65.4586C8.53644 65.3976 8.62451 65.3299 8.71259 65.2553" fill="white"></path>
<path d="M16.7677 63.9141C15.9073 64.7 15.8395 66.0278 16.6254 66.895C17.4045 67.7554 18.7391 67.8232 19.5996 67.0373C19.7147 66.9289 19.8163 66.8137 19.9044 66.6918L28.522 56.1975L17.1606 63.6363C17.0251 63.7108 16.8896 63.8057 16.7677 63.9141Z" fill="white"></path>
<path d="M3.31983 53.7382C2.16133 54.1176 1.53127 55.3709 1.91066 56.5294C2.29006 57.6879 3.5434 58.318 4.7019 57.9386C4.8374 57.8912 4.95935 57.837 5.0813 57.776L21.9913 49.9917L3.74665 53.6501C3.60438 53.6704 3.46211 53.6975 3.31983 53.745" fill="white"></path>
<path d="M2.55411 49.7138C2.71671 49.7002 2.87253 49.6596 3.02835 49.6121L19.3829 45.6421L2.56089 45.1136C2.39829 45.0933 2.23569 45.0933 2.0731 45.1136C0.799425 45.2491 -0.115181 46.3873 0.0135415 47.6542C0.149039 48.9279 1.28721 49.8425 2.56089 49.7138" fill="white"></path>
<path d="M1.94462 41.0149C2.10722 41.0352 2.26304 41.0284 2.41886 41.0149L17.6149 40.4932L2.87278 36.7806C2.73051 36.7332 2.58146 36.6993 2.42564 36.679C1.23326 36.5435 0.15606 37.4107 0.0205633 38.603C-0.108159 39.7954 0.752248 40.8726 1.94462 41.0081" fill="white"></path>
<path d="M3.45514 32.8514C3.65839 32.9191 3.86841 32.953 4.07166 32.9665L16.91 34.6873L5.5147 28.5358C5.33855 28.4206 5.14886 28.3258 4.94561 28.2648C3.67871 27.8515 2.31697 28.5493 1.9037 29.8162C1.49044 31.0831 2.18825 32.4449 3.45514 32.8581" fill="white"></path>
<path d="M6.3886 24.7148C6.59185 24.8367 6.80864 24.918 7.03221 24.9654L17.6213 28.5155L9.19339 21.1715C9.04434 21.0089 8.8682 20.8667 8.66495 20.7515C7.5742 20.1214 6.1718 20.5008 5.54852 21.5983C4.92523 22.6959 5.29785 24.0915 6.39537 24.7148" fill="white"></path>
<path d="M24.7078 7.58106L28.8269 11.3343L28.705 5.8738C28.705 5.55538 28.644 5.23019 28.5085 4.92532C27.9801 3.73295 26.5912 3.19096 25.3921 3.71262C24.1997 4.24106 23.6509 5.62991 24.1794 6.82906C24.3081 7.12037 24.491 7.37782 24.7078 7.58784" fill="white"></path>
<path d="M17.757 12.757L23.7324 16.6457L21.8355 9.85734C21.7609 9.49827 21.6051 9.15275 21.3815 8.83433C20.494 7.61486 18.7936 7.35064 17.5741 8.23137C16.3546 9.1121 16.0904 10.8194 16.9711 12.0321C17.1879 12.3302 17.4589 12.5741 17.757 12.757Z" fill="white"></path>
<path d="M11.8017 18.4818L19.9247 22.3842L15.2501 14.8844C15.1078 14.5863 14.9046 14.3085 14.6471 14.0782C13.5564 13.0891 11.8762 13.1771 10.8939 14.2611C9.90473 15.3519 9.99281 17.032 11.0768 18.0144C11.3004 18.2176 11.5442 18.3667 11.8085 18.4818" fill="white"></path>
<path d="M33.0141 4.36975L35.2498 6.71385L36.2728 3.59064C36.4015 3.24512 36.4421 2.86573 36.3608 2.48634C36.1373 1.39559 35.0736 0.68423 33.9761 0.9078C32.8853 1.13137 32.174 2.19502 32.3975 3.29255C32.4856 3.72614 32.7024 4.09198 33.0073 4.36975" fill="white"></path>
<path d="M37.9597 31.8419L37.167 27.5534C37.1535 27.4721 37.1264 27.3908 37.0925 27.3095C36.8486 26.7675 36.205 26.5236 35.663 26.7675C35.121 27.0114 34.8771 27.655 35.121 28.197C35.1617 28.2851 35.2159 28.3664 35.2769 28.4341L37.9597 31.8351V31.8419Z" fill="white"></path>
<path d="M38.1018 26.063C38.1221 26.151 38.1492 26.2323 38.1831 26.3069L40.4256 31.0357L40.4391 25.8191V25.7513C40.4391 25.6903 40.4323 25.6294 40.4188 25.5684C40.2833 24.9316 39.6532 24.5251 39.0164 24.6606C38.3796 24.7961 37.9731 25.4261 38.1086 26.063" fill="white"></path>
<path d="M42.9728 23.021C42.2615 23.021 41.6924 23.6036 41.6924 24.315C41.6924 24.4234 41.7127 24.5318 41.7398 24.6334L42.9999 30.7714L44.2397 24.5657V24.5453C44.2533 24.4708 44.2601 24.3895 44.2601 24.3082C44.2601 23.5969 43.6774 23.0278 42.9661 23.0278" fill="white"></path>
<path d="M45.5742 31.0424L48.3993 24.044C48.44 23.9559 48.4739 23.8611 48.4942 23.7595C48.6568 23.0074 48.1825 22.269 47.4305 22.1064C46.6785 21.9438 45.9401 22.418 45.7775 23.17C45.7571 23.2717 45.7436 23.3733 45.7504 23.4749L45.5742 31.0492V31.0424Z" fill="white"></path>
<path d="M52.3629 22.052C51.6109 21.7201 50.7301 22.052 50.3914 22.8108C50.3507 22.9057 50.3237 22.9938 50.3033 23.0886L48.0405 31.8417L52.9862 24.2674C53.0404 24.1929 53.0878 24.1116 53.1217 24.0235C53.4604 23.2715 53.1217 22.3908 52.3629 22.052Z" fill="white"></path>
<path d="M57.5522 23.0819C56.8544 22.5806 55.8856 22.7364 55.3775 23.4342C55.3368 23.4884 55.3097 23.5494 55.2758 23.6104L55.2623 23.6442C55.2487 23.6781 55.2284 23.712 55.2149 23.7391L51.1567 31.9366L57.6674 25.5073C57.6674 25.5073 57.7216 25.4531 57.7419 25.4328L57.769 25.4057C57.8164 25.3515 57.8638 25.3108 57.9045 25.2499C58.4058 24.5521 58.25 23.5833 57.5522 23.0751" fill="white"></path>
<path d="M60.4861 25.2363C60.4319 25.2837 60.3912 25.3379 60.3438 25.3921L60.3167 25.426C60.2964 25.4531 60.2761 25.4734 60.2558 25.5005L53.9619 33.2916L62.3424 27.804C62.3424 27.804 62.3966 27.7701 62.4237 27.7498L62.4644 27.7227C62.5186 27.682 62.5795 27.6414 62.6337 27.5939C63.2841 27.0045 63.3383 25.9951 62.7421 25.3447C62.1527 24.6943 61.1433 24.6401 60.4929 25.2363" fill="white"></path>
<path d="M67.5383 28.9693C67.0641 28.1631 66.0275 27.8853 65.2213 28.3595C65.1536 28.4002 65.0994 28.4476 65.0384 28.4883L64.9977 28.5154C64.9706 28.5357 64.9435 28.556 64.9232 28.5763L56.624 35.297L66.5831 31.4353C66.5831 31.4353 66.6508 31.4082 66.6779 31.3947L66.7186 31.3811C66.7863 31.3473 66.8541 31.3269 66.9218 31.2863C67.7348 30.812 68.0058 29.7755 67.5383 28.9693Z" fill="white"></path>
<path d="M70.316 36.1641C71.2577 35.8524 71.7726 34.8362 71.4677 33.8945C71.1561 32.9528 70.1399 32.4379 69.1982 32.7428C69.0627 32.7902 68.9407 32.8444 68.8256 32.9189L58.9546 37.9865L69.9095 36.2454C70.045 36.2318 70.1805 36.2047 70.316 36.1641Z" fill="white"></path>
<path d="M72.6672 41.9567C73.7105 41.8483 74.4693 40.9134 74.3609 39.87C74.2525 38.8267 73.3176 38.0679 72.2743 38.1763C72.1252 38.1899 71.983 38.2237 71.8407 38.2779L60.7231 41.2995L72.2268 41.9567C72.3691 41.977 72.5182 41.977 72.6672 41.9635" fill="white"></path>
<path d="M74.1101 48.4605C75.2144 48.5824 76.1968 47.783 76.3187 46.6787C76.4407 45.5744 75.6413 44.5921 74.537 44.4701C74.3811 44.4498 74.2253 44.4566 74.0763 44.4701L61.6851 45.1205L73.6698 48.3521C73.812 48.3995 73.9611 48.4334 74.1169 48.4537" fill="white"></path>
<path d="M80.3363 64.7472C80.9054 63.7309 80.5463 62.4505 79.5301 61.8746C79.4285 61.8137 79.3201 61.773 79.2117 61.7324L61.0415 53.5754L77.1318 65.3163C77.2334 65.4043 77.3418 65.4789 77.4637 65.5466C78.48 66.1157 79.7672 65.7566 80.3363 64.7404" fill="white"></path>
<path d="M74.3271 55.547C75.4382 55.8993 76.6238 55.2896 76.9761 54.1785C77.3284 53.0674 76.7186 51.8818 75.6076 51.5295C75.4585 51.4821 75.3027 51.455 75.1537 51.4415L61.7598 49.2532L73.8935 55.3438C74.029 55.4251 74.1713 55.4928 74.3339 55.5402" fill="white"></path>
<path d="M74.8285 68.9341C74.7269 68.8392 74.6117 68.7579 74.4965 68.6902L59.436 57.9656L71.5698 71.8879C71.6579 72.0031 71.7595 72.1182 71.8679 72.2199C72.7757 73.0329 74.1713 72.9583 74.9911 72.0505C75.8041 71.1427 75.7296 69.747 74.8217 68.9273" fill="white"></path>
<path d="M68.8188 74.8011C68.7239 74.6656 68.6087 74.5504 68.4936 74.442L56.895 62.2947L64.8284 77.0977C64.8961 77.2468 64.9774 77.3891 65.0723 77.5246C65.8243 78.5543 67.2673 78.7847 68.3039 78.0327C69.3336 77.2807 69.564 75.8376 68.812 74.8011" fill="white"></path>
<path d="M57.6745 81.4812C58.1623 82.5787 59.4495 83.0732 60.5471 82.5855C61.6446 82.0977 62.1392 80.8104 61.6514 79.7061C61.5836 79.5639 61.5091 79.4284 61.4142 79.3064L53.3115 66.3394L57.5323 81.0408C57.5661 81.1898 57.6136 81.3389 57.6745 81.4812Z" fill="white"></path>
<path d="M49.084 83.5068C49.3685 84.8076 50.649 85.6409 51.9565 85.3563C53.2573 85.0718 54.0906 83.7913 53.8061 82.4838C53.7654 82.2805 53.6909 82.0976 53.6096 81.9215L48.6504 69.72L49.0366 82.87C49.023 83.08 49.0366 83.2968 49.084 83.5068Z" fill="white"></path>
<path d="M43.0066 86C44.2668 86 45.283 84.9702 45.283 83.7101C45.283 83.4865 45.2491 83.2697 45.1881 83.0732L43.0066 72.0505L40.8116 83.0461C40.7438 83.2629 40.71 83.4933 40.71 83.7372C40.71 84.9973 41.7397 86.0203 43.0066 86.0135" fill="white"></path>
<path d="M17.5741 78.0869C18.6242 78.8592 20.1079 78.6288 20.8734 77.572C21.0631 77.3145 21.1919 77.03 21.2596 76.7319L22.8314 70.9055L17.7706 74.1303C17.4996 74.2929 17.2489 74.503 17.0457 74.7807C16.2733 75.8376 16.5037 77.3145 17.5605 78.0801" fill="white"></path>
<path d="M29.0099 81.1965C29.159 80.8578 29.2335 80.5055 29.2403 80.16L29.8907 72.6128L24.6876 78.0869C24.4166 78.3308 24.193 78.6356 24.0304 78.9947C23.4207 80.37 24.0372 81.9756 25.4193 82.5854C26.7946 83.1951 28.4002 82.5786 29.0099 81.1965Z" fill="white"></path>
<path d="M37.1869 83.351C37.2479 83.0732 37.2615 82.7887 37.2276 82.5177L36.6449 73.0532L32.3768 81.3185C32.1939 81.5895 32.0584 81.8944 31.9906 82.2331C31.679 83.6694 32.5936 85.0854 34.0299 85.3902C35.4661 85.7019 36.8821 84.7873 37.1869 83.351Z" fill="white"></path>
<path d="M10.867 72.0371C11.6055 72.8705 12.8859 72.9517 13.7192 72.2065C13.9834 71.9762 14.1664 71.6849 14.2815 71.38L15.6839 67.7622L11.9849 68.7175C11.6461 68.7852 11.3209 68.941 11.0432 69.1849C10.2099 69.9234 10.1286 71.2038 10.8738 72.0371" fill="white"></path>
<path d="M32.5531 55.6352C32.2076 56.123 32.316 56.7937 32.8038 57.146C33.2916 57.4915 33.9623 57.3831 34.3146 56.8953C34.3688 56.8208 34.4027 56.7463 34.4365 56.6717L35.717 53.1895L32.8716 55.3439C32.7496 55.4184 32.6412 55.5132 32.5599 55.6352" fill="white"></path>
<path d="M29.7417 53.5553C29.6333 53.6027 29.5316 53.6637 29.4436 53.745C28.9558 54.1786 28.9151 54.9306 29.3555 55.4184C29.7959 55.9062 30.5411 55.9468 31.0289 55.5064C31.1034 55.4387 31.1644 55.3642 31.2186 55.2829L33.7998 51.4551L29.7417 53.5553Z" fill="white"></path>
<path d="M26.1103 52.898C26.4693 53.5146 27.2552 53.7178 27.8717 53.3655C27.9869 53.2978 28.0885 53.2097 28.1698 53.1148L32.2686 49.3616L26.93 51.0011C26.8081 51.035 26.6861 51.0756 26.5709 51.1434C25.9544 51.5024 25.7512 52.2883 26.1103 52.9048" fill="white"></path>
<path d="M24.8636 50.52C24.972 50.4861 25.0669 50.4387 25.1549 50.3845L31.2116 46.9971L24.369 47.8168C24.2471 47.8236 24.1319 47.8439 24.01 47.8778C23.2783 48.1149 22.8786 48.894 23.1157 49.6257C23.3528 50.3574 24.1319 50.7571 24.8636 50.52Z" fill="white"></path>
<path d="M22.5804 46.7532L30.6763 44.4565L22.2958 43.8806C22.1739 43.8671 22.0451 43.8603 21.9164 43.8738C21.0967 43.9619 20.5072 44.6936 20.5885 45.5134C20.6766 46.3331 21.4083 46.9225 22.2281 46.8412C22.35 46.8277 22.4652 46.7938 22.5804 46.7599" fill="white"></path>
<path d="M20.1825 42.3292C20.2502 42.336 20.318 42.3292 20.3857 42.3292H20.4196C20.4603 42.3292 20.4941 42.3292 20.5348 42.3292L29.586 41.7534L20.8532 39.3212C20.8193 39.3076 20.7855 39.3009 20.7448 39.2941H20.7109V39.2873C20.6432 39.2738 20.5822 39.2534 20.5145 39.2467C19.6608 39.1586 18.8953 39.7751 18.8072 40.6287C18.7191 41.4824 19.3356 42.2479 20.1893 42.336" fill="white"></path>
<path d="M18.0279 35.06C17.7569 35.9 18.2176 36.7943 19.0509 37.0653C19.1187 37.0856 19.1864 37.0992 19.2542 37.1127L19.2948 37.1195C19.3287 37.1195 19.3558 37.1331 19.3897 37.1331L29.2132 38.6845L20.3449 34.1792C20.3449 34.1792 20.2907 34.1521 20.2568 34.1386L20.2162 34.1183C20.1552 34.0912 20.0943 34.0573 20.0265 34.037C19.1864 33.766 18.2921 34.2267 18.0211 35.06" fill="white"></path>
<path d="M18.6038 29.1116C18.1364 29.9246 18.4141 30.9612 19.2271 31.4286C19.2949 31.4693 19.3626 31.4896 19.4304 31.5235L19.471 31.5438C19.5049 31.5574 19.5388 31.5709 19.5659 31.5777L29.4978 35.3648L21.2121 28.7051C21.2121 28.7051 21.1647 28.6645 21.1376 28.6442L21.097 28.6171C21.036 28.5764 20.9818 28.529 20.9141 28.4883C20.1011 28.0209 19.0645 28.2987 18.5971 29.1116" fill="white"></path>
<path d="M23.4751 23.2242L23.4412 23.1835C23.387 23.1293 23.3396 23.0616 23.2786 23.0074C22.5402 22.3434 21.402 22.4044 20.7381 23.1429C20.0741 23.8813 20.1351 25.0195 20.8736 25.6834C20.9345 25.7376 21.0023 25.7783 21.0633 25.8257L21.1039 25.8528C21.1378 25.8731 21.1649 25.8934 21.1988 25.9138L30.5481 31.9434L23.5361 23.3055C23.5361 23.3055 23.4887 23.2513 23.4683 23.2242" fill="white"></path>
<path d="M27.1873 18.2786L27.1602 18.2312C27.1195 18.1566 27.0856 18.0889 27.0314 18.0144C26.4149 17.1607 25.2293 16.971 24.3757 17.5876C23.5221 18.2041 23.3324 19.3897 23.9489 20.2433C23.9963 20.311 24.0573 20.372 24.1115 20.433L24.1454 20.4669C24.1792 20.5007 24.2063 20.5346 24.2402 20.5617L32.4378 28.6306L27.2347 18.3802C27.2211 18.3463 27.2008 18.3125 27.1873 18.2786Z" fill="white"></path>
<path d="M28.2713 15.0401C28.3323 15.1824 28.4136 15.3043 28.5016 15.4263L35.2291 25.7105L32.0652 13.8409C32.0381 13.6851 31.9907 13.5293 31.9229 13.3803C31.4622 12.3708 30.2766 11.9304 29.2672 12.3911C28.2577 12.8518 27.8174 14.0374 28.2713 15.0469" fill="white"></path>
<path d="M43.0001 21.8963L45.0732 2.4796C45.0935 2.35765 45.1071 2.22893 45.1071 2.1002C45.1003 0.941705 44.1586 0 42.9933 0C41.828 0 40.8863 0.948479 40.8931 2.11375C40.8931 2.24248 40.9067 2.36442 40.927 2.4796L43.0001 21.8963Z" fill="white"></path>
<path d="M35.453 7.83172C34.3148 8.07562 33.5899 9.20024 33.8406 10.3384C33.8745 10.4942 33.9287 10.6433 33.9896 10.7788L38.8201 23.4749L38.0071 9.91838C38.0071 9.76256 37.9936 9.60673 37.9597 9.44414C37.7158 8.30596 36.5912 7.58783 35.453 7.83172Z" fill="white"></path>
<path d="M53.5079 3.94979C53.5621 3.82107 53.6095 3.68557 53.6366 3.5433C53.8941 2.35093 53.1285 1.17888 51.9361 0.921431C50.7438 0.663986 49.5649 1.42954 49.3143 2.62192C49.2804 2.77097 49.2668 2.92001 49.2668 3.06906L47.7222 20.975L53.5147 3.94979H53.5079Z" fill="white"></path>
<path d="M52.8574 21.0089L61.4412 7.19496C61.536 7.06623 61.6173 6.92396 61.6851 6.77492C62.2067 5.60964 61.6851 4.24112 60.5198 3.71946C59.3545 3.19779 57.986 3.71946 57.4643 4.88473C57.3966 5.04055 57.3424 5.20315 57.3153 5.35897L52.8642 21.0089H52.8574Z" fill="white"></path>
<path d="M58.2636 22.1537L68.5004 11.6188C68.6156 11.5172 68.724 11.402 68.8121 11.2733C69.5234 10.3045 69.3066 8.93599 68.331 8.23141C67.3622 7.52005 65.9937 7.73685 65.2891 8.70565C65.1943 8.84115 65.113 8.97664 65.052 9.12569L58.2568 22.1537H58.2636Z" fill="white"></path>
<path d="M63.6294 24.5859L74.3337 18.0617C74.5301 17.9601 74.7266 17.8381 74.896 17.6823C75.8851 16.7812 75.9529 15.2569 75.0586 14.2678C74.1643 13.2786 72.6332 13.2109 71.644 14.1052C71.4815 14.2542 71.346 14.4168 71.2376 14.5929L63.6294 24.5859Z" fill="white"></path>
<path d="M68.5615 28.4069L78.8729 24.9518C79.0964 24.9043 79.3132 24.8163 79.5232 24.6943C80.614 24.0643 80.9866 22.6619 80.3565 21.5711C79.7265 20.4804 78.3241 20.1077 77.2333 20.7378C77.0233 20.8598 76.8472 21.0088 76.6913 21.1714L68.5615 28.3934V28.4069Z" fill="white"></path>
<path d="M79.889 28.5019L72.5654 33.5559L81.2982 33.2782C81.6302 33.3053 81.9757 33.2646 82.3077 33.1562C83.7033 32.7023 84.4689 31.1983 84.0149 29.8027C83.561 28.407 82.057 27.6415 80.6614 28.0954C80.3768 28.1902 80.1194 28.3257 79.889 28.4951" fill="white"></path>
<path d="M85.9867 47.6746C86.129 46.3806 85.194 45.2085 83.8933 45.0663C83.5748 45.0324 83.2632 45.0663 82.9719 45.1476L77.4707 46.7803L82.457 49.4631C82.7348 49.619 83.0464 49.7274 83.3784 49.768C84.6791 49.9103 85.8444 48.9754 85.9867 47.6746Z" fill="white"></path>
<path d="M82.9039 36.2183C82.538 36.2589 82.1925 36.3673 81.8877 36.5367L75.4922 39.748L82.3619 41.523C82.7074 41.6382 83.0868 41.6788 83.473 41.6382C84.9702 41.4823 86.0542 40.1409 85.8984 38.6437C85.7425 37.1464 84.4011 36.0624 82.9107 36.2183" fill="white"></path>
<path d="M82.714 53.955C82.3685 53.8466 82.023 53.8331 81.691 53.894L78.1816 54.5986L80.5461 57.1798C80.7832 57.4576 81.0881 57.6744 81.4607 57.7964C82.5243 58.1419 83.6625 57.5592 84.008 56.5024C84.3535 55.4387 83.7709 54.3005 82.714 53.955Z" fill="white"></path>
</g>
<g clip-path="url(#clip1_3303_2045)">
<path d="M104.427 25.094C104.149 24.9043 103.824 24.7688 103.444 24.6943V24.6469C103.702 24.5859 103.939 24.4572 104.162 24.2675C104.386 24.0778 104.562 23.8542 104.698 23.6036C104.833 23.3461 104.901 23.0819 104.901 22.8109C104.901 22.3841 104.793 22.0182 104.569 21.6998C104.345 21.3814 104.013 21.1375 103.573 20.9546C103.133 20.7717 102.564 20.6836 101.873 20.6836H99.4404C99.1423 20.6768 99 20.8123 99 21.0765V28.6915C99 28.9557 99.1423 29.0912 99.4404 29.0912H101.866C102.611 29.0912 103.234 29.0031 103.742 28.827C104.251 28.6508 104.637 28.3798 104.894 28.0208C105.152 27.6617 105.287 27.2078 105.287 26.6658C105.287 26.3474 105.213 26.0493 105.063 25.7851C104.914 25.5141 104.698 25.2905 104.427 25.1008M100.443 21.7879H101.757C102.34 21.7879 102.767 21.8827 103.031 22.0792C103.295 22.2689 103.431 22.5738 103.431 22.9803C103.431 23.3326 103.282 23.6307 102.984 23.8813C102.686 24.132 102.293 24.2539 101.798 24.2539H100.443V21.7879ZM103.39 27.6278C103.099 27.8649 102.692 27.9801 102.184 27.9801H100.443V25.3515H101.967C102.577 25.3515 103.038 25.4666 103.356 25.6902C103.675 25.9138 103.83 26.2322 103.83 26.6522C103.83 27.0723 103.688 27.3975 103.39 27.6278Z" fill="white"></path>
<path d="M108.437 20.731C108.343 20.6768 108.18 20.6565 107.95 20.6565H107.74C107.53 20.6565 107.374 20.6836 107.279 20.731C107.184 20.7852 107.13 20.8597 107.13 20.9546V28.8134C107.13 28.9083 107.177 28.9828 107.279 29.037C107.374 29.0912 107.53 29.1115 107.74 29.1115H107.95C108.18 29.1115 108.343 29.0844 108.437 29.037C108.532 28.9828 108.58 28.9083 108.58 28.8134V20.9546C108.58 20.8597 108.532 20.7852 108.437 20.731Z" fill="white"></path>
<path d="M117.678 27.8377C117.631 27.7564 117.584 27.6887 117.523 27.6277C117.462 27.5667 117.407 27.5396 117.346 27.5396C117.292 27.5396 117.204 27.5667 117.082 27.6209C116.96 27.6751 116.798 27.7361 116.601 27.8038C116.405 27.8716 116.168 27.9258 115.903 27.9868C115.639 28.041 115.334 28.0681 115.002 28.0681C114.365 28.0681 113.837 27.9529 113.41 27.7225C112.983 27.4922 112.672 27.1399 112.468 26.6724C112.265 26.205 112.164 25.6088 112.164 24.8907C112.164 24.1725 112.265 23.5492 112.475 23.0818C112.685 22.6143 112.997 22.2688 113.424 22.0452C113.851 21.8284 114.386 21.7132 115.043 21.7132C115.449 21.7132 115.795 21.7471 116.079 21.8081C116.364 21.8758 116.594 21.9436 116.771 22.0113C116.947 22.0859 117.075 22.1197 117.157 22.1197C117.218 22.1197 117.279 22.0926 117.333 22.0384C117.394 21.9842 117.441 21.9165 117.489 21.8352C117.536 21.7539 117.57 21.6658 117.604 21.5845C117.638 21.5032 117.651 21.4287 117.651 21.3745C117.651 21.3203 117.617 21.2593 117.556 21.2051C117.495 21.1509 117.414 21.09 117.319 21.0358C117.157 20.9477 116.96 20.8732 116.716 20.8054C116.472 20.7377 116.208 20.6902 115.917 20.6496C115.632 20.6089 115.334 20.5886 115.036 20.5886C113.613 20.5886 112.536 20.9409 111.805 21.6523C111.073 22.3636 110.707 23.4341 110.707 24.8636C110.707 26.2931 111.059 27.4245 111.757 28.1223C112.455 28.8201 113.539 29.1656 115.009 29.1656C115.321 29.1656 115.619 29.1453 115.91 29.0978C116.201 29.0572 116.472 28.9962 116.716 28.9285C116.967 28.8607 117.177 28.7794 117.353 28.6913C117.502 28.6101 117.617 28.5355 117.692 28.4746C117.766 28.4068 117.807 28.3323 117.807 28.2374C117.807 28.2036 117.8 28.1494 117.78 28.0681C117.76 27.9868 117.733 27.9055 117.685 27.8242" fill="white"></path>
<path d="M124.724 27.8988H121.072V25.2566H124.324C124.528 25.2566 124.629 25.1143 124.629 24.823V24.5858C124.629 24.2945 124.528 24.1523 124.324 24.1523H121.072V21.6998H124.711C124.914 21.6998 125.015 21.5575 125.015 21.2662V21.029C125.015 20.7377 124.914 20.5955 124.711 20.5955H120.07C119.778 20.5955 119.629 20.7242 119.629 20.9884V28.6033C119.629 28.8676 119.772 28.9963 120.07 28.9963H124.724C124.927 28.9963 125.029 28.854 125.029 28.5627V28.3188C125.029 28.0342 124.927 27.8852 124.724 27.8852" fill="white"></path>
<path d="M134.337 20.6768C134.243 20.6226 134.087 20.6022 133.863 20.6022H133.687C133.477 20.6022 133.321 20.6293 133.226 20.6768C133.132 20.731 133.077 20.8055 133.077 20.9003V26.0153C133.077 26.1915 133.077 26.3405 133.084 26.4693C133.084 26.598 133.098 26.7267 133.104 26.869L133.05 26.8825C132.989 26.7538 132.915 26.6251 132.84 26.4964C132.759 26.3676 132.678 26.2457 132.59 26.1237L128.796 20.8732C128.741 20.7987 128.687 20.7445 128.626 20.7039C128.565 20.6632 128.491 20.6361 128.416 20.6226C128.335 20.609 128.24 20.5955 128.125 20.5955H127.752C127.542 20.5955 127.386 20.6226 127.285 20.67C127.19 20.7242 127.143 20.7987 127.143 20.8936V28.7524C127.143 28.8472 127.19 28.9218 127.285 28.976C127.38 29.0302 127.536 29.0505 127.752 29.0505H127.922C128.145 29.0505 128.301 29.0234 128.396 28.976C128.491 28.9218 128.538 28.8472 128.538 28.7524V23.1089C128.538 22.9802 128.531 22.8515 128.511 22.716L128.565 22.7024C128.633 22.8312 128.708 22.9599 128.782 23.0818C128.857 23.2038 128.938 23.3257 129.026 23.4477L132.928 28.8405C132.962 28.8947 133.01 28.9421 133.064 28.976C133.118 29.0098 133.179 29.0302 133.253 29.0437C133.328 29.0573 133.416 29.064 133.511 29.064H133.87C134.094 29.064 134.249 29.0369 134.344 28.9895C134.439 28.9353 134.487 28.8608 134.487 28.7659V20.8936C134.487 20.7987 134.439 20.7242 134.344 20.67" fill="white"></path>
<path d="M142.542 20.5954H136.296C136.099 20.5954 136.004 20.7377 136.004 21.029V21.2729C136.004 21.5642 136.099 21.7065 136.296 21.7065H138.708V28.732C138.708 28.8268 138.755 28.9014 138.85 28.9556C138.945 29.0098 139.094 29.0369 139.311 29.0369H139.575C139.778 29.0369 139.927 29.0098 140.022 28.9556C140.117 28.9014 140.164 28.8268 140.164 28.732V21.6997H142.556C142.752 21.6997 142.847 21.5574 142.847 21.2661V21.0222C142.847 20.7377 142.752 20.5886 142.556 20.5886" fill="white"></path>
<path d="M149.588 27.8988H145.936V25.2566H149.188C149.391 25.2566 149.493 25.1143 149.493 24.823V24.5858C149.493 24.2945 149.391 24.1523 149.188 24.1523H145.936V21.6998H149.574C149.778 21.6998 149.879 21.5575 149.879 21.2662V21.029C149.879 20.7377 149.778 20.5955 149.574 20.5955H144.934C144.642 20.5955 144.493 20.7242 144.493 20.9884V28.6033C144.493 28.8676 144.635 28.9963 144.934 28.9963H149.588C149.791 28.9963 149.893 28.854 149.893 28.5627V28.3188C149.893 28.0342 149.791 27.8852 149.588 27.8852" fill="white"></path>
<path d="M159.201 20.6768C159.106 20.6226 158.951 20.6022 158.727 20.6022H158.551C158.341 20.6022 158.185 20.6293 158.09 20.6768C157.995 20.731 157.941 20.8055 157.941 20.9003V26.0153C157.941 26.1915 157.941 26.3405 157.948 26.4693C157.948 26.598 157.961 26.7267 157.968 26.869L157.914 26.8825C157.853 26.7538 157.779 26.6251 157.704 26.4964C157.623 26.3676 157.541 26.2457 157.453 26.1237L153.659 20.8732C153.605 20.7987 153.551 20.7445 153.49 20.7039C153.429 20.6632 153.355 20.6361 153.28 20.6226C153.199 20.609 153.104 20.5955 152.989 20.5955H152.616C152.406 20.5955 152.25 20.6226 152.149 20.67C152.054 20.7242 152.006 20.7987 152.006 20.8936V28.7524C152.006 28.8472 152.054 28.9218 152.149 28.976C152.243 29.0302 152.399 29.0505 152.616 29.0505H152.785C153.009 29.0505 153.165 29.0234 153.26 28.976C153.355 28.9218 153.402 28.8472 153.402 28.7524V23.1089C153.402 22.9802 153.395 22.8515 153.375 22.716L153.429 22.7024C153.504 22.8312 153.571 22.9599 153.646 23.0818C153.72 23.2038 153.802 23.3257 153.89 23.4477L157.792 28.8405C157.826 28.8947 157.873 28.9421 157.928 28.976C157.982 29.0098 158.043 29.0302 158.117 29.0437C158.192 29.0573 158.28 29.064 158.375 29.064H158.734C158.957 29.064 159.113 29.0369 159.208 28.9895C159.303 28.9353 159.35 28.8608 159.35 28.7659V20.8936C159.35 20.7987 159.303 20.7242 159.208 20.67" fill="white"></path>
<path d="M168.612 28.6575L165.536 20.7987C165.509 20.7377 165.448 20.6835 165.353 20.6497C165.258 20.6158 165.116 20.5955 164.94 20.5955H164.472C164.303 20.5955 164.168 20.6158 164.066 20.6497C163.964 20.6835 163.897 20.7377 163.876 20.7987L160.8 28.644C160.794 28.6846 160.78 28.7185 160.773 28.7456C160.767 28.7727 160.76 28.8066 160.76 28.8337C160.76 28.9014 160.814 28.9489 160.916 28.9895C161.017 29.0302 161.18 29.0505 161.397 29.0505H161.593C161.735 29.0505 161.851 29.0369 161.952 29.0031C162.047 28.9692 162.115 28.9218 162.149 28.8472L162.86 26.9841H166.512L167.216 28.8472C167.25 28.9218 167.325 28.9692 167.426 29.0031C167.535 29.0369 167.663 29.0505 167.812 29.0505H168.05C168.26 29.0505 168.415 29.0302 168.51 28.9827C168.605 28.9421 168.652 28.8879 168.652 28.8337C168.652 28.7998 168.652 28.7727 168.646 28.7456C168.646 28.7185 168.632 28.6914 168.612 28.6575ZM163.273 25.9273L164.493 22.7431C164.54 22.6279 164.574 22.5127 164.601 22.3908C164.628 22.2688 164.655 22.1469 164.682 22.025H164.723C164.743 22.1469 164.77 22.2688 164.804 22.3908C164.838 22.5127 164.879 22.6347 164.926 22.7431L166.132 25.9273H163.287H163.273Z" fill="white"></path>
<path d="M176.843 28.5695L175.793 26.1915C175.657 25.8798 175.508 25.6156 175.332 25.4124C175.163 25.2024 174.953 25.0669 174.716 25.0059V24.9585C175.068 24.8839 175.366 24.762 175.61 24.5791C175.854 24.3962 176.037 24.1726 176.165 23.9016C176.294 23.6306 176.362 23.319 176.362 22.9667C176.362 22.1875 176.105 21.5981 175.59 21.1984C175.082 20.7987 174.302 20.5955 173.259 20.5955H170.644C170.353 20.5955 170.204 20.731 170.204 20.9952V28.7321C170.204 28.8269 170.251 28.9014 170.353 28.9556C170.448 29.0098 170.603 29.0302 170.82 29.0302H171.03C171.26 29.0302 171.423 29.0031 171.511 28.9556C171.599 28.9082 171.647 28.8269 171.647 28.7321V25.4395H172.798C173.096 25.4395 173.347 25.4666 173.544 25.5208C173.74 25.575 173.896 25.6698 174.018 25.8053C174.14 25.9408 174.255 26.1102 174.35 26.327L175.413 28.793C175.461 28.8743 175.535 28.9353 175.637 28.976C175.745 29.0166 175.874 29.0369 176.023 29.0369H176.274C176.497 29.0369 176.653 29.0166 176.748 28.9827C176.843 28.9489 176.89 28.8947 176.89 28.8201C176.89 28.793 176.89 28.7592 176.877 28.7185C176.863 28.6779 176.85 28.6304 176.823 28.583M173.286 24.3691H171.653V21.6998H173.286C173.862 21.6998 174.275 21.8082 174.526 22.025C174.777 22.2417 174.905 22.5873 174.905 23.0683C174.905 23.5493 174.777 23.8542 174.526 24.0574C174.275 24.2607 173.862 24.3623 173.286 24.3623" fill="white"></path>
<path d="M179.872 20.6768C179.777 20.6226 179.614 20.6023 179.384 20.6023H179.174C178.964 20.6023 178.808 20.6294 178.713 20.6768C178.618 20.731 178.564 20.8055 178.564 20.9004V28.7592C178.564 28.8541 178.611 28.9286 178.713 28.9828C178.808 29.037 178.964 29.0573 179.174 29.0573H179.384C179.614 29.0573 179.777 29.0302 179.872 28.9828C179.966 28.9286 180.014 28.8541 180.014 28.7592V20.8936C180.014 20.7988 179.966 20.7242 179.872 20.67" fill="white"></path>
<path d="M189.336 21.6794C188.631 20.9545 187.602 20.5955 186.26 20.5955C184.919 20.5955 183.903 20.9545 183.198 21.6794C182.487 22.3976 182.134 23.468 182.134 24.8772C182.134 26.2863 182.487 27.3364 183.198 28.0749C183.903 28.8134 184.926 29.1792 186.26 29.1792C187.595 29.1792 188.631 28.8134 189.336 28.0749C190.041 27.3364 190.4 26.2728 190.4 24.8772C190.4 23.4815 190.047 22.4043 189.336 21.6794ZM188.259 27.2484C187.805 27.7904 187.134 28.0681 186.26 28.0681C185.386 28.0681 184.729 27.7971 184.275 27.2484C183.821 26.7064 183.591 25.9069 183.591 24.8568C183.591 23.8067 183.821 23.0276 184.275 22.4992C184.729 21.964 185.393 21.6998 186.26 21.6998C187.127 21.6998 187.798 21.964 188.259 22.4992C188.713 23.0344 188.943 23.8203 188.943 24.8568C188.943 25.8934 188.713 26.7064 188.259 27.2484Z" fill="white"></path>
<path d="M129.263 62.4031H124.778L128.409 58.2772C128.708 57.9249 128.979 57.5658 129.209 57.1932C129.439 56.8273 129.615 56.4412 129.737 56.0415C129.859 55.6417 129.92 55.2217 129.92 54.7881C129.92 53.6161 129.487 52.6608 128.626 51.9088C127.759 51.1636 126.519 50.7842 124.893 50.7842C124.351 50.7842 123.816 50.8384 123.281 50.9468C122.746 51.0552 122.258 51.1974 121.817 51.3668C121.377 51.5362 121.018 51.7259 120.747 51.9291C120.476 52.1324 120.341 52.3288 120.341 52.5185C120.341 52.7218 120.402 52.9657 120.53 53.2434C120.659 53.5212 120.822 53.7651 121.018 53.9751C121.215 54.1852 121.411 54.2936 121.607 54.2936C121.757 54.2936 121.967 54.219 122.238 54.07C122.509 53.9209 122.834 53.7719 123.206 53.6296C123.586 53.4873 124.006 53.4128 124.473 53.4128C124.968 53.4128 125.374 53.5415 125.693 53.7922C126.011 54.0429 126.167 54.402 126.167 54.8626C126.167 55.0659 126.126 55.2759 126.052 55.4927C125.977 55.7095 125.869 55.9263 125.733 56.1431C125.598 56.3599 125.442 56.5767 125.259 56.7935L119.846 63.0263C119.771 63.1076 119.724 63.1822 119.697 63.2499C119.677 63.3177 119.663 63.399 119.663 63.4938C119.663 63.67 119.683 63.9003 119.731 64.1781C119.778 64.4558 119.846 64.6997 119.948 64.9165C120.042 65.1265 120.171 65.2349 120.32 65.2349H129.277C129.819 65.2349 130.09 64.8623 130.09 64.1103V63.5412C130.09 62.7824 129.819 62.3963 129.277 62.3963" fill="white"></path>
<path d="M141.092 51.6514C140.259 51.0755 139.263 50.7842 138.104 50.7842C136.946 50.7842 135.95 51.0755 135.117 51.6514C134.283 52.2272 133.64 53.0605 133.186 54.1513C132.739 55.242 132.508 56.5564 132.508 58.0942C132.508 59.6321 132.732 60.9261 133.186 62.0237C133.64 63.1212 134.283 63.9545 135.117 64.5371C135.95 65.113 136.946 65.4043 138.104 65.4043C139.263 65.4043 140.259 65.113 141.092 64.5371C141.925 63.9613 142.569 63.1212 143.023 62.0237C143.477 60.9261 143.7 59.6186 143.7 58.0942C143.7 56.5699 143.477 55.242 143.023 54.1513C142.569 53.0605 141.925 52.2272 141.092 51.6514ZM139.737 60.6551C139.595 61.3191 139.385 61.8001 139.107 62.105C138.829 62.4098 138.497 62.5657 138.104 62.5657C137.711 62.5657 137.379 62.4098 137.102 62.105C136.824 61.8001 136.614 61.3123 136.472 60.6551C136.329 59.998 136.255 59.1443 136.255 58.0942C136.255 57.0441 136.329 56.177 136.472 55.5198C136.614 54.8694 136.824 54.3884 137.102 54.0835C137.379 53.7787 137.711 53.6228 138.104 53.6228C138.497 53.6228 138.829 53.7787 139.107 54.0835C139.385 54.3884 139.595 54.8694 139.737 55.5198C139.879 56.1702 139.954 57.0306 139.954 58.0942C139.954 59.1579 139.886 59.998 139.737 60.6551Z" fill="white"></path>
<path d="M155.198 62.4031H150.713L154.344 58.2772C154.642 57.9249 154.913 57.5658 155.143 57.1932C155.374 56.8273 155.55 56.4412 155.672 56.0415C155.794 55.6417 155.855 55.2217 155.855 54.7881C155.855 53.6161 155.421 52.6608 154.561 51.9088C153.694 51.1636 152.454 50.7842 150.828 50.7842C150.286 50.7842 149.751 50.8384 149.215 50.9468C148.68 51.0552 148.192 51.1974 147.752 51.3668C147.312 51.5362 146.953 51.7259 146.682 51.9291C146.411 52.1324 146.275 52.3288 146.275 52.5185C146.275 52.7218 146.336 52.9657 146.465 53.2434C146.594 53.5212 146.756 53.7651 146.953 53.9751C147.149 54.1852 147.346 54.2936 147.542 54.2936C147.691 54.2936 147.901 54.219 148.172 54.07C148.443 53.9209 148.768 53.7719 149.141 53.6296C149.52 53.4873 149.94 53.4128 150.408 53.4128C150.902 53.4128 151.309 53.5415 151.627 53.7922C151.946 54.0429 152.102 54.402 152.102 54.8626C152.102 55.0659 152.061 55.2759 151.986 55.4927C151.912 55.7095 151.803 55.9263 151.668 56.1431C151.532 56.3599 151.377 56.5767 151.194 56.7935L145.781 63.0263C145.706 63.1076 145.659 63.1822 145.632 63.2499C145.611 63.3177 145.598 63.399 145.598 63.4938C145.598 63.67 145.618 63.9003 145.665 64.1781C145.713 64.4558 145.781 64.6997 145.882 64.9165C145.977 65.1265 146.106 65.2349 146.255 65.2349H155.211C155.753 65.2349 156.024 64.8623 156.024 64.1103V63.5412C156.024 62.7824 155.753 62.3963 155.211 62.3963" fill="white"></path>
<path d="M169.072 59.8491H168.327V51.5566C168.327 51.3398 168.205 51.1772 167.968 51.0688C167.724 50.9604 167.358 50.9062 166.864 50.9062H165.915C165.36 50.9062 164.946 50.9333 164.682 50.9875C164.418 51.0417 164.221 51.1705 164.086 51.3737L158.199 60.1742C158.199 60.1742 158.151 60.242 158.144 60.2962C158.138 60.3504 158.131 60.4046 158.131 60.4588C158.131 60.6349 158.158 60.8788 158.212 61.1837C158.266 61.4886 158.348 61.7596 158.463 61.9899C158.578 62.2203 158.693 62.3354 158.815 62.3354H164.75V64.6253C164.75 64.8421 164.865 65.0047 165.102 65.1131C165.333 65.2215 165.712 65.2757 166.24 65.2757H166.87C167.379 65.2757 167.751 65.2215 167.988 65.1131C168.219 65.0047 168.341 64.8421 168.341 64.6253V62.3354H169.086C169.323 62.3354 169.499 62.2541 169.607 62.0915C169.716 61.9289 169.763 61.6715 169.763 61.3124V60.8653C169.763 60.181 169.54 59.8423 169.086 59.8423M164.818 55.7841C164.763 56.15 164.736 56.4955 164.736 56.8071V59.8491H161.647L164.912 54.8899L164.987 54.9102C164.926 55.127 164.872 55.4183 164.818 55.7909" fill="white"></path>
<path d="M125.382 45.3779C125.104 45.3779 124.907 45.344 124.779 45.2763C124.65 45.2085 124.589 45.1137 124.589 44.985V34.9243C124.589 34.5788 124.779 34.4094 125.158 34.4094H128.593C129.927 34.4094 130.93 34.6804 131.594 35.2224C132.258 35.7644 132.597 36.5638 132.597 37.6275C132.597 38.6911 132.265 39.5041 131.594 40.0461C130.93 40.5881 129.927 40.8591 128.593 40.8591H126.472V44.985C126.472 45.1069 126.411 45.2085 126.289 45.2763C126.167 45.344 125.957 45.3779 125.659 45.3779H125.382ZM126.472 39.4296H128.593C129.338 39.4296 129.88 39.2873 130.205 39.0096C130.53 38.725 130.7 38.2711 130.7 37.6343C130.7 36.9974 130.537 36.5571 130.205 36.2725C129.88 35.9947 129.338 35.8525 128.593 35.8525H126.472V39.4296Z" fill="white"></path>
<path d="M135.334 45.3441C134.954 45.3441 134.765 45.1747 134.765 44.8292V34.9311C134.765 34.5856 134.954 34.4163 135.334 34.4163H141.37C141.634 34.4163 141.763 34.606 141.763 34.9786V35.2902C141.763 35.6628 141.628 35.8525 141.37 35.8525H136.641V39.0367H140.869C141.133 39.0367 141.269 39.2264 141.269 39.599V39.9107C141.269 40.2833 141.133 40.473 140.869 40.473H136.641V43.9078H141.384C141.648 43.9078 141.783 44.0975 141.783 44.4701V44.7818C141.783 45.1544 141.648 45.3441 141.384 45.3441H135.327H135.334Z" fill="white"></path>
<path d="M145.32 45.3779C145.042 45.3779 144.845 45.344 144.717 45.2763C144.588 45.2085 144.527 45.1137 144.527 44.985V34.9243C144.527 34.5788 144.717 34.4094 145.096 34.4094H148.497C149.852 34.4094 150.868 34.6669 151.532 35.1885C152.196 35.7102 152.535 36.4758 152.535 37.4852C152.535 37.9459 152.453 38.3524 152.284 38.7047C152.115 39.057 151.878 39.3551 151.559 39.5854C151.241 39.8225 150.855 39.9851 150.394 40.08V40.141C150.706 40.2222 150.97 40.3984 151.193 40.6694C151.417 40.9404 151.613 41.2791 151.789 41.6856L153.151 44.775C153.185 44.8359 153.205 44.8969 153.219 44.9511C153.233 45.0121 153.239 45.0527 153.239 45.0866C153.239 45.1814 153.178 45.2492 153.05 45.2966C152.921 45.344 152.718 45.3644 152.426 45.3644H152.101C151.905 45.3644 151.742 45.3373 151.6 45.2898C151.464 45.2356 151.363 45.1611 151.308 45.0527L149.926 41.8482C149.798 41.5704 149.655 41.3401 149.493 41.1707C149.33 41.0014 149.127 40.8794 148.87 40.8049C148.619 40.7304 148.294 40.6965 147.901 40.6965H146.403V44.9782C146.403 45.1001 146.343 45.2018 146.221 45.2695C146.099 45.3373 145.889 45.3711 145.591 45.3711H145.313L145.32 45.3779ZM146.41 39.3212H148.531C149.276 39.3212 149.818 39.1857 150.143 38.9215C150.468 38.6573 150.638 38.2237 150.638 37.6343C150.638 37.011 150.475 36.5571 150.143 36.2725C149.818 35.9947 149.276 35.8525 148.531 35.8525H146.41V39.3212Z" fill="white"></path>
<path d="M160.015 45.4592C158.531 45.4592 157.366 45.134 156.512 44.4836C155.658 43.8332 155.238 42.9389 155.238 41.8075V34.782C155.238 34.6601 155.299 34.5585 155.428 34.4907C155.557 34.423 155.76 34.3891 156.051 34.3891H156.309C156.607 34.3891 156.817 34.423 156.939 34.4907C157.061 34.5585 157.122 34.6533 157.122 34.782V41.7601C157.122 42.4715 157.379 43.0202 157.901 43.4267C158.416 43.8265 159.127 44.0297 160.021 44.0297C160.916 44.0297 161.641 43.8265 162.162 43.4267C162.677 43.027 162.941 42.4715 162.941 41.7601V34.782C162.941 34.6601 163.002 34.5585 163.131 34.4907C163.26 34.423 163.463 34.3891 163.754 34.3891H164.012C164.31 34.3891 164.52 34.423 164.642 34.4907C164.764 34.5585 164.825 34.6533 164.825 34.782V41.8075C164.825 42.9457 164.398 43.8332 163.551 44.4836C162.704 45.134 161.525 45.4592 160.035 45.4592M158.998 33.6167C158.836 33.6167 158.714 33.5964 158.626 33.5625C158.538 33.5287 158.497 33.4745 158.497 33.4135C158.497 33.3729 158.511 33.3254 158.538 33.2712C158.565 33.217 158.619 33.1628 158.7 33.1019L159.635 32.194C159.784 32.0382 159.96 31.9366 160.15 31.8824C160.347 31.8282 160.624 31.8079 160.977 31.8079C161.288 31.8079 161.532 31.8282 161.722 31.8688C161.905 31.9095 162 31.984 162 32.0856C162 32.1602 161.959 32.2347 161.878 32.3228C161.796 32.404 161.627 32.526 161.363 32.6818L160.258 33.2916C160.042 33.4271 159.852 33.5151 159.689 33.5558C159.527 33.5964 159.296 33.6167 158.998 33.6167Z" fill="white"></path>
</g>
<defs>
<clipPath id="clip0_3303_2045">
<rect width="86" height="86" fill="white"></rect>
</clipPath>
<clipPath id="clip1_3303_2045">
<rect width="91.3996" height="44.8089" fill="white" transform="translate(99 20.5955)"></rect>
</clipPath>
</defs>
</svg>